<svg xmlns="http://www.w3.org/2000/svg" width="124" height="62" viewBox="0 0 124 62">
    <g fill="none" fill-rule="evenodd">
        <rect width="123.101" height="61.458" fill="#1946FF" rx="3.68"/>
        <path fill="#FFF" d="M21.706 21.214c0 .683-.087 1.331-.26 1.946a6.947 6.947 0 0 1-.745 1.72 7.133 7.133 0 0 1-2.642 2.545 7.49 7.49 0 0 1-1.763.7 7.755 7.755 0 0 1-1.96.247H9.572a.612.612 0 0 1-.31-.077c-.09-.052-.134-.161-.134-.329V14.471c0-.135.037-.244.11-.328.075-.084.186-.126.334-.126h4.762a7.56 7.56 0 0 1 1.957.251 7.406 7.406 0 0 1 3.25 1.826c.451.432.836.915 1.155 1.45.318.534.566 1.11.743 1.728.177.619.266 1.266.266 1.942zm-8.839-3.729v7.429h.812c.148 0 .293-.005.434-.015.142-.01.284-.02.425-.034a3.886 3.886 0 0 0 1.353-.352 3.75 3.75 0 0 0 1.096-.773c.312-.319.557-.694.734-1.125.177-.432.266-.902.266-1.41 0-.542-.102-1.04-.304-1.493a3.69 3.69 0 0 0-.826-1.179 3.724 3.724 0 0 0-1.222-.773 4.042 4.042 0 0 0-1.493-.275h-1.275zm9.943-.628c0-.206.058-.383.173-.531.116-.148.297-.222.541-.222h2.213a.69.69 0 0 1 .25.053c.09.035.175.087.252.154.077.068.143.147.198.237.055.09.082.193.082.31v10.77c0 .245-.068.43-.203.556-.135.125-.328.188-.58.188h-2.212c-.476 0-.714-.248-.714-.744v-10.77zm0-4.888c0-.27.058-.462.173-.574.116-.113.297-.17.541-.17h2.242c.225 0 .407.057.545.17.139.112.208.304.208.574v1.884a.69.69 0 0 1-.053.251c-.036.09-.085.177-.15.261a.816.816 0 0 1-.237.208.61.61 0 0 1-.313.082h-2.242c-.476 0-.714-.267-.714-.802v-1.884zm13.903 15.978a2.34 2.34 0 0 0 .101-.749c-.003-.28-.005-.565-.005-.855-.187.2-.377.41-.57.633a5.083 5.083 0 0 1-.642.618c-.235.19-.5.347-.797.469-.296.122-.64.183-1.034.183-.87 0-1.674-.148-2.415-.444a5.765 5.765 0 0 1-1.922-1.241 5.617 5.617 0 0 1-1.265-1.908c-.303-.74-.455-1.555-.455-2.444 0-.882.152-1.708.454-2.478.303-.77.725-1.44 1.266-2.01a5.878 5.878 0 0 1 1.922-1.342 5.94 5.94 0 0 1 2.415-.488c.4 0 .759.061 1.077.184.32.122.609.28.87.473.26.193.499.41.715.652.215.242.42.482.613.72l.367-1.15.106-.3a.73.73 0 0 1 .126-.226.493.493 0 0 1 .198-.14.857.857 0 0 1 .314-.049h1.44c.07 0 .152.01.246.03a.48.48 0 0 1 .246.135c.09.07.158.148.203.232.045.083.067.19.067.318v9.834c0 1.005-.164 1.9-.492 2.686a5.77 5.77 0 0 1-1.348 1.99 5.76 5.76 0 0 1-2.024 1.236 7.294 7.294 0 0 1-2.511.425c-.348 0-.721-.03-1.12-.092a8.293 8.293 0 0 1-1.194-.275 7.114 7.114 0 0 1-1.15-.468 4.71 4.71 0 0 1-.98-.662 1.01 1.01 0 0 1-.203-.203.691.691 0 0 1-.12-.575.97.97 0 0 1 .159-.352l.918-1.266c.167-.18.325-.277.473-.29.148-.012.335.065.56.232.161.155.346.279.556.372a3.983 3.983 0 0 0 1.304.328c.216.017.41.025.584.025.29 0 .593-.039.908-.116.316-.077.61-.192.884-.343a3.01 3.01 0 0 0 .725-.556c.209-.219.352-.47.43-.753zm-5.526-5.738c0 .431.066.832.198 1.203.132.37.32.69.565.96.245.271.54.484.884.638.345.155.726.232 1.145.232.412 0 .8-.072 1.164-.217a2.942 2.942 0 0 0 1.603-1.512c.165-.348.256-.724.276-1.13v-.319a2.95 2.95 0 0 0-.276-1.116 3.197 3.197 0 0 0-.652-.927 3.086 3.086 0 0 0-.951-.638 2.894 2.894 0 0 0-1.164-.236c-.419 0-.8.082-1.145.246-.344.164-.64.385-.884.662a2.93 2.93 0 0 0-.565.975 3.51 3.51 0 0 0-.198 1.179zm10.464-5.352c0-.206.058-.383.174-.531.116-.148.296-.222.541-.222h2.212a.69.69 0 0 1 .251.053c.09.035.174.087.251.154.078.068.144.147.198.237.055.09.083.193.083.31v10.77c0 .245-.068.43-.203.556-.136.125-.329.188-.58.188h-2.212c-.477 0-.715-.248-.715-.744v-10.77zm0-4.888c0-.27.058-.462.174-.574.116-.113.296-.17.541-.17h2.241c.226 0 .407.057.546.17.138.112.208.304.208.574v1.884a.69.69 0 0 1-.054.251c-.035.09-.085.177-.15.261a.816.816 0 0 1-.236.208.61.61 0 0 1-.314.082h-2.241c-.477 0-.715-.267-.715-.802v-1.884zm5.76 2.222c0-.2.066-.35.198-.45.132-.099.32-.194.565-.284l2.193-.763a.468.468 0 0 1 .092-.01h.082c.238 0 .397.07.478.208.08.138.12.32.12.546l-.01 3.043h1.614a.7.7 0 0 1 .502.183c.13.122.194.306.194.55v1.865c0 .27-.065.469-.194.594a.69.69 0 0 1-.502.189H51.13l.01 7.766c0 .245-.071.43-.213.556-.142.125-.338.188-.59.188h-2.182c-.496 0-.744-.248-.744-.744l-.01-7.766h-.705c-.496 0-.744-.261-.744-.783v-1.864c0-.49.248-.734.744-.734h.705l.01-2.29zm18.868 13.466c0 .11-.02.214-.058.314a.481.481 0 0 1-.193.237.482.482 0 0 1-.251.135c-.097.02-.18.029-.251.029h-1.903a.854.854 0 0 1-.329-.053.507.507 0 0 1-.203-.15.87.87 0 0 1-.13-.237 13.99 13.99 0 0 1-.111-.304l-.28-.724a33.3 33.3 0 0 1-.57.555 5.212 5.212 0 0 1-.681.546 4.074 4.074 0 0 1-.807.42c-.29.113-.599.17-.927.17a6.244 6.244 0 0 1-3.193-.855 6.189 6.189 0 0 1-1.27-.986 6.295 6.295 0 0 1-1.613-2.801 6.464 6.464 0 0 1-.223-1.705c0-.896.165-1.728.493-2.498a6.208 6.208 0 0 1 3.342-3.352 6.24 6.24 0 0 1 2.464-.487c.399 0 .766.06 1.101.178.335.12.64.276.913.469.274.193.521.412.744.657.222.244.42.492.594.744l.376-1.17.16-.39a.695.695 0 0 1 .135-.223.36.36 0 0 1 .179-.096c.07-.016.17-.025.3-.025h1.439c.07 0 .154.01.25.03.097.019.181.064.252.135.09.07.154.151.193.241.039.09.058.193.058.31v10.886zm-9.515-5.41c0 .426.066.823.198 1.194.132.37.32.69.565.96a2.684 2.684 0 0 0 2.029.88 3.072 3.072 0 0 0 2.169-.88c.273-.27.487-.59.642-.96.154-.37.232-.768.232-1.193a3.122 3.122 0 0 0-.874-2.164 3.044 3.044 0 0 0-.967-.672 2.933 2.933 0 0 0-1.202-.246 2.626 2.626 0 0 0-2.029.918 3.042 3.042 0 0 0-.565.985 3.51 3.51 0 0 0-.198 1.179zm10.822-9.05c0-.207.051-.38.154-.523.103-.141.28-.212.531-.212h2.367c.064 0 .132.018.203.053.07.036.137.085.198.15a.857.857 0 0 1 .155.232c.041.09.062.19.062.3v14.431c0 .245-.069.43-.207.556a.767.767 0 0 1-.537.188h-2.24c-.252 0-.429-.063-.532-.188-.103-.126-.154-.311-.154-.556V13.196zM13.389 34a.287.287 0 0 1 .063-.126.694.694 0 0 1 .294-.217.454.454 0 0 1 .164-.034h2.473a.41.41 0 0 1 .28.101c.078.068.136.128.174.179l.242.55 5.071 13.08c.052.13.042.234-.029.314-.07.08-.193.121-.367.121h-2.772a.606.606 0 0 1-.343-.082.531.531 0 0 1-.188-.275 75.724 75.724 0 0 1-.377-.98l-.367-.981h-5.13a88.27 88.27 0 0 1-.372.98c-.125.325-.25.652-.371.98-.084.239-.248.358-.493.358H8.49a.472.472 0 0 1-.304-.097c-.08-.064-.095-.16-.044-.29L13.39 34zm1.758 4.134c-.122.329-.246.683-.372 1.063-.126.38-.25.763-.372 1.15a79.85 79.85 0 0 1-.372 1.144c-.125.377-.25.73-.372 1.058h2.966l-1.478-4.415zm5.537-1.478c-.128-.264-.153-.49-.072-.676.08-.187.272-.28.575-.28h2.473c.167 0 .314.045.44.135.125.09.213.219.265.386.11.342.23.723.362 1.145.132.422.27.852.415 1.29a603.146 603.146 0 0 1 .822 2.497c.119.364.225.68.318.951.094.27.163.464.208.58l2.048-6.463c.084-.206.179-.344.285-.415.106-.07.256-.106.45-.106h2.289c.186 0 .328.022.425.067a.36.36 0 0 1 .193.184.455.455 0 0 1 .02.266c-.02.1-.052.204-.098.314l-1.062 2.598c.045.11.132.295.26.556.13.26.276.557.44.888.164.332.332.68.503 1.044.17.363.313.703.43 1.019l2.366-6.415c.084-.206.17-.344.256-.415.087-.07.217-.106.391-.106h2.135c.31 0 .522.058.638.174.116.116.122.335.02.657l-4.531 11.022a.771.771 0 0 1-.266.294c-.12.08-.292.121-.517.121h-1.014c-.251 0-.435-.04-.55-.12a.91.91 0 0 1-.281-.315l-1.797-4.385-1.768 4.405a1.18 1.18 0 0 1-.25.294c-.097.08-.242.121-.435.121h-1.15c-.258 0-.44-.037-.546-.111a.659.659 0 0 1-.236-.304l-4.454-10.897zM48.643 46.5a6.436 6.436 0 0 1-1.913 1.222 5.83 5.83 0 0 1-2.25.44 6.533 6.533 0 0 1-2.503-.484 6.42 6.42 0 0 1-3.478-3.352 6.072 6.072 0 0 1-.52-2.521 6.504 6.504 0 0 1 .796-3.14c.254-.463.564-.89.927-1.28.364-.39.772-.722 1.222-1 .451-.276.94-.492 1.469-.647a5.92 5.92 0 0 1 1.67-.231c.535 0 1.054.07 1.556.212a6.052 6.052 0 0 1 2.628 1.526c.367.361.682.755.946 1.184.264.428.469.885.614 1.371.145.487.217.987.217 1.503 0 .334-.005.608-.014.82-.01.213-.06.382-.15.508-.09.125-.24.212-.45.26-.209.049-.516.073-.922.073h-6.955c.064.412.195.757.391 1.034.197.277.424.497.681.661.258.165.531.282.821.353.29.07.564.106.821.106.232 0 .47-.024.715-.072a5.12 5.12 0 0 0 .71-.193c.229-.08.438-.174.628-.28.19-.107.343-.218.459-.334.103-.083.192-.146.266-.188a.473.473 0 0 1 .236-.063c.084 0 .17.03.256.087.087.058.185.142.295.251l1.024 1.16c.07.083.116.159.135.226.02.068.03.137.03.208 0 .129-.036.24-.107.333-.071.094-.155.176-.251.247zm-4.647-8.047c-.25 0-.494.05-.73.15-.234.1-.455.233-.66.4a3.448 3.448 0 0 0-.556.57 3.495 3.495 0 0 0-.401.648h4.936a5.69 5.69 0 0 0-.44-.696 2.977 2.977 0 0 0-.54-.56 2.336 2.336 0 0 0-.696-.377 2.795 2.795 0 0 0-.913-.135zm8.87 5.7c.174.173.363.32.566.439.202.119.397.216.584.29.187.074.35.127.493.159.141.032.238.048.29.048.122 0 .278-.005.468-.014.19-.01.372-.039.546-.087.174-.048.323-.127.449-.237.125-.11.188-.264.188-.463a.765.765 0 0 0-.106-.43.854.854 0 0 0-.31-.27 2.537 2.537 0 0 0-.497-.199 36.892 36.892 0 0 1-.661-.203c-.773-.206-1.41-.454-1.913-.744-.502-.29-.9-.613-1.193-.97a3.161 3.161 0 0 1-.613-1.155 4.795 4.795 0 0 1-.174-1.304c0-.534.106-1.02.319-1.458a3.22 3.22 0 0 1 .908-1.126 4.293 4.293 0 0 1 1.41-.724 6.117 6.117 0 0 1 1.826-.256c.405 0 .785.033 1.14.101.354.068.692.174 1.014.319.322.145.636.332.942.56.306.229.61.5.913.816.109.13.165.25.169.363.003.112-.07.233-.218.362-.25.206-.49.409-.72.608-.228.2-.465.422-.71.667a.538.538 0 0 1-.231.12.47.47 0 0 1-.222-.004.651.651 0 0 1-.203-.097.837.837 0 0 1-.174-.164 1.68 1.68 0 0 0-.773-.507c-.29-.087-.56-.13-.811-.13-.316 0-.567.054-.754.164a.506.506 0 0 0-.26.502.537.537 0 0 0 .188.391c.112.094.25.17.415.227.164.058.338.105.522.14.183.036.352.076.507.121.58.187 1.11.39 1.594.609a4.86 4.86 0 0 1 1.255.806c.355.32.63.7.826 1.145.197.444.295.985.295 1.623s-.127 1.207-.382 1.71a3.66 3.66 0 0 1-1.048 1.265c-.444.342-.97.602-1.579.783a6.89 6.89 0 0 1-1.966.27c-.4 0-.805-.035-1.217-.106a5.724 5.724 0 0 1-1.198-.343 5.425 5.425 0 0 1-1.101-.609 4.32 4.32 0 0 1-.927-.903 1.004 1.004 0 0 1-.16-.285.797.797 0 0 1-.048-.294.712.712 0 0 1 .058-.266.52.52 0 0 1 .169-.208l1.246-1.246c.155-.129.291-.174.41-.135.12.038.273.148.46.328zm7.963-2.31a6.387 6.387 0 0 1 .864-3.23c.274-.468.602-.893.985-1.276.384-.383.81-.71 1.28-.98a6.414 6.414 0 0 1 3.227-.85c.876 0 1.698.162 2.468.487a6.25 6.25 0 0 1 3.362 3.352c.331.77.497 1.602.497 2.498 0 .592-.076 1.16-.227 1.705a6.438 6.438 0 0 1-.637 1.521 6.248 6.248 0 0 1-2.266 2.265 6.333 6.333 0 0 1-3.197.855c-.593 0-1.161-.074-1.705-.222a6.248 6.248 0 0 1-3.787-2.898 6.438 6.438 0 0 1-.637-1.521 6.334 6.334 0 0 1-.227-1.705zm3.525 0c0 .426.066.823.198 1.194.133.37.32.69.56.96.242.271.535.485.88.643.344.158.732.237 1.164.237.418 0 .797-.08 1.135-.237.338-.158.625-.372.86-.642s.415-.591.54-.961a3.69 3.69 0 0 0 .189-1.193c0-.413-.063-.805-.188-1.179a3.047 3.047 0 0 0-.541-.985 2.55 2.55 0 0 0-.86-.672 2.564 2.564 0 0 0-1.135-.246c-.432 0-.82.082-1.164.246a2.623 2.623 0 0 0-.88.672 3.09 3.09 0 0 0-.56.985 3.51 3.51 0 0 0-.198 1.179zm10.32-5.979a.598.598 0 0 1 .265-.135c.094-.02.182-.03.266-.03h1.459c.116 0 .215.022.3.064a.642.642 0 0 1 .212.169c.058.07.104.151.14.241.035.09.069.184.101.28l.3 1.237c.096-.2.214-.427.352-.681a2.88 2.88 0 0 1 1.41-1.275c.345-.152.775-.227 1.29-.227.824 0 1.546.175 2.164.526a4.491 4.491 0 0 1 1.526 1.415c.123-.2.29-.414.503-.642a4.07 4.07 0 0 1 .763-.633 4.318 4.318 0 0 1 1.019-.478 4.061 4.061 0 0 1 1.27-.188c.734 0 1.39.141 1.966.425a4.38 4.38 0 0 1 1.468 1.159c.403.49.709 1.06.918 1.714.21.654.314 1.351.314 2.092v6.327c0 .245-.053.43-.16.556-.106.125-.275.188-.507.188h-2.231c-.277 0-.467-.047-.57-.14-.103-.093-.155-.275-.155-.546v-6.385c0-.277-.043-.535-.13-.773a1.957 1.957 0 0 0-.362-.623 1.622 1.622 0 0 0-.565-.415c-.223-.1-.469-.15-.74-.15-.244 0-.476.048-.695.145a1.852 1.852 0 0 0-.98 1.019c-.1.241-.15.507-.15.797v6.327c0 .245-.053.43-.16.556-.106.125-.275.188-.507.188h-2.231c-.277 0-.467-.047-.57-.14-.103-.093-.155-.275-.155-.546v-6.385a2.4 2.4 0 0 0-.12-.773 1.868 1.868 0 0 0-.348-.623 1.597 1.597 0 0 0-.55-.415c-.216-.1-.46-.15-.73-.15-.232 0-.459.047-.681.14a1.94 1.94 0 0 0-.599.396c-.177.17-.325.375-.444.613-.12.239-.189.503-.208.793v6.375c0 .11-.021.22-.063.329a.522.522 0 0 1-.188.25.884.884 0 0 1-.237.107c-.074.02-.16.029-.256.029h-2.183c-.277 0-.477-.068-.599-.203s-.184-.315-.184-.54v-10.81a.71.71 0 0 1 .083-.338.608.608 0 0 1 .227-.242l-.058.029zM104.08 46.5a6.436 6.436 0 0 1-1.913 1.222 5.83 5.83 0 0 1-2.25.44 6.533 6.533 0 0 1-2.502-.484 6.42 6.42 0 0 1-3.478-3.352 6.072 6.072 0 0 1-.522-2.521 6.504 6.504 0 0 1 .797-3.14c.255-.463.564-.89.928-1.28.364-.39.77-.722 1.222-1 .45-.276.94-.492 1.468-.647a5.92 5.92 0 0 1 1.671-.231c.535 0 1.053.07 1.555.212a6.052 6.052 0 0 1 2.628 1.526c.367.361.683.755.947 1.184.264.428.468.885.613 1.371.145.487.217.987.217 1.503 0 .334-.004.608-.014.82-.01.213-.06.382-.15.508-.09.125-.24.212-.449.26-.21.049-.517.073-.923.073h-6.955c.065.412.195.757.391 1.034.197.277.424.497.681.661.258.165.532.282.822.353.29.07.563.106.82.106.233 0 .47-.024.716-.072a5.12 5.12 0 0 0 .71-.193c.228-.08.437-.174.627-.28.19-.107.343-.218.46-.334.102-.083.19-.146.265-.188a.473.473 0 0 1 .237-.063c.083 0 .169.03.256.087.087.058.185.142.294.251l1.024 1.16c.071.083.116.159.135.226.02.068.03.137.03.208 0 .129-.036.24-.107.333-.07.094-.154.176-.251.247zm-4.646-8.047c-.252 0-.495.05-.73.15-.235.1-.455.233-.662.4a3.448 3.448 0 0 0-.555.57 3.495 3.495 0 0 0-.4.648h4.935a5.69 5.69 0 0 0-.44-.696 2.977 2.977 0 0 0-.54-.56 2.336 2.336 0 0 0-.696-.377 2.795 2.795 0 0 0-.912-.135z"/>
    </g>
</svg>
